<svg width="48" height="49" viewBox="0 0 48 49" fill="none" xmlns="http://www.w3.org/2000/svg">
<circle cx="24" cy="24.6543" r="24" fill="#62B846"/>
<mask id="mask0_42_2109" style="mask-type:alpha" maskUnits="userSpaceOnUse" x="12" y="11" width="24" height="25">
<rect x="12" y="11.9629" width="24" height="24" fill="#D9D9D9"/>
</mask>
<g mask="url(#mask0_42_2109)">
<path d="M23 27.9629V19.8129L20.4 22.4129L19 20.9629L24 15.9629L29 20.9629L27.6 22.4129L25 19.8129V27.9629H23ZM18 31.9629C17.45 31.9629 16.9792 31.7671 16.5875 31.3754C16.1958 30.9837 16 30.5129 16 29.9629V26.9629H18V29.9629H30V26.9629H32V29.9629C32 30.5129 31.8042 30.9837 31.4125 31.3754C31.0208 31.7671 30.55 31.9629 30 31.9629H18Z" fill="#F2F2F2"/>
</g>
</svg>
