<svg width="44" height="44" viewBox="0 0 44 44" fill="none" xmlns="http://www.w3.org/2000/svg">
<path d="M21 28C20.7167 28 20.4792 27.9042 20.2875 27.7125C20.0958 27.5208 20 27.2833 20 27C20 26.7167 20.0958 26.4792 20.2875 26.2875C20.4792 26.0958 20.7167 26 21 26H23C23.2833 26 23.5208 26.0958 23.7125 26.2875C23.9042 26.4792 24 26.7167 24 27C24 27.2833 23.9042 27.5208 23.7125 27.7125C23.5208 27.9042 23.2833 28 23 28H21ZM17 23C16.7167 23 16.4792 22.9042 16.2875 22.7125C16.0958 22.5208 16 22.2833 16 22C16 21.7167 16.0958 21.4792 16.2875 21.2875C16.4792 21.0958 16.7167 21 17 21H27C27.2833 21 27.5208 21.0958 27.7125 21.2875C27.9042 21.4792 28 21.7167 28 22C28 22.2833 27.9042 22.5208 27.7125 22.7125C27.5208 22.9042 27.2833 23 27 23H17ZM14 18C13.7167 18 13.4792 17.9042 13.2875 17.7125C13.0958 17.5208 13 17.2833 13 17C13 16.7167 13.0958 16.4792 13.2875 16.2875C13.4792 16.0958 13.7167 16 14 16H30C30.2833 16 30.5208 16.0958 30.7125 16.2875C30.9042 16.4792 31 16.7167 31 17C31 17.2833 30.9042 17.5208 30.7125 17.7125C30.5208 17.9042 30.2833 18 30 18H14Z" fill="#0F1F1C"/>
</svg>
