<svg width="28" height="28" viewBox="0 0 28 28" fill="none" xmlns="http://www.w3.org/2000/svg">
<mask id="mask0_53_16216" style="mask-type:alpha" maskUnits="userSpaceOnUse" x="2" y="2" width="25" height="24">
<rect x="2.17529" y="1.99999" width="24" height="24" fill="#D9D9D9"/>
</mask>
<g mask="url(#mask0_53_16216)">
<path d="M3.17529 19.2C3.17529 18.6333 3.32113 18.1125 3.61279 17.6375C3.90446 17.1625 4.29196 16.8 4.77529 16.55C5.80863 16.0333 6.85863 15.6458 7.92529 15.3875C8.99196 15.1292 10.0753 15 11.1753 15C12.2753 15 13.3586 15.1292 14.4253 15.3875C15.492 15.6458 16.542 16.0333 17.5753 16.55C18.0586 16.8 18.4461 17.1625 18.7378 17.6375C19.0295 18.1125 19.1753 18.6333 19.1753 19.2V20C19.1753 20.55 18.9795 21.0208 18.5878 21.4125C18.1961 21.8042 17.7253 22 17.1753 22H5.17529C4.62529 22 4.15446 21.8042 3.76279 21.4125C3.37113 21.0208 3.17529 20.55 3.17529 20V19.2ZM20.6253 22C20.8086 21.7 20.9461 21.3792 21.0378 21.0375C21.1295 20.6958 21.1753 20.35 21.1753 20V19C21.1753 18.2667 20.9711 17.5625 20.5628 16.8875C20.1545 16.2125 19.5753 15.6333 18.8253 15.15C19.6753 15.25 20.4753 15.4208 21.2253 15.6625C21.9753 15.9042 22.6753 16.2 23.3253 16.55C23.9253 16.8833 24.3836 17.2542 24.7003 17.6625C25.017 18.0708 25.1753 18.5167 25.1753 19V20C25.1753 20.55 24.9795 21.0208 24.5878 21.4125C24.1961 21.8042 23.7253 22 23.1753 22H20.6253ZM11.1753 14C10.0753 14 9.13363 13.6083 8.35029 12.825C7.56696 12.0417 7.17529 11.1 7.17529 9.99999C7.17529 8.89999 7.56696 7.95833 8.35029 7.17499C9.13363 6.39166 10.0753 5.99999 11.1753 5.99999C12.2753 5.99999 13.217 6.39166 14.0003 7.17499C14.7836 7.95833 15.1753 8.89999 15.1753 9.99999C15.1753 11.1 14.7836 12.0417 14.0003 12.825C13.217 13.6083 12.2753 14 11.1753 14ZM21.1753 9.99999C21.1753 11.1 20.7836 12.0417 20.0003 12.825C19.217 13.6083 18.2753 14 17.1753 14C16.992 14 16.7586 13.9792 16.4753 13.9375C16.192 13.8958 15.9586 13.85 15.7753 13.8C16.2253 13.2667 16.5711 12.675 16.8128 12.025C17.0545 11.375 17.1753 10.7 17.1753 9.99999C17.1753 9.29999 17.0545 8.62499 16.8128 7.97499C16.5711 7.32499 16.2253 6.73333 15.7753 6.19999C16.0086 6.11666 16.242 6.06249 16.4753 6.03749C16.7086 6.01249 16.942 5.99999 17.1753 5.99999C18.2753 5.99999 19.217 6.39166 20.0003 7.17499C20.7836 7.95833 21.1753 8.89999 21.1753 9.99999Z" fill="#0F1F1C"/>
</g>
</svg>
