<svg width="28" height="28" viewBox="0 0 28 28" fill="none" xmlns="http://www.w3.org/2000/svg">
<mask id="mask0_77_5060" style="mask-type:alpha" maskUnits="userSpaceOnUse" x="2" y="2" width="25" height="24">
<rect x="2.02295" y="2" width="24" height="24" fill="#D9D9D9"/>
</mask>
<g mask="url(#mask0_77_5060)">
<path d="M15.4653 23.748C15.623 23.7917 15.8099 23.8109 16.0261 23.8057C16.2421 23.8006 16.4237 23.7711 16.5711 23.7173L23.5231 21.25C23.5231 20.7347 23.3439 20.3078 22.9856 19.9693C22.6272 19.6308 22.1974 19.4615 21.6961 19.4615H15.6923C15.5013 19.4615 15.302 19.4493 15.0943 19.425C14.8865 19.4007 14.6987 19.3577 14.5308 19.2962L13.0076 18.7712C12.8871 18.7276 12.8018 18.6507 12.7518 18.5405C12.7018 18.4302 12.6935 18.3148 12.7268 18.1943C12.7602 18.0904 12.8355 18.01 12.9528 17.953C13.0702 17.8958 13.1891 17.8891 13.3096 17.9327L14.5883 18.3962C14.7577 18.4616 14.9337 18.508 15.1163 18.5355C15.299 18.5632 15.5057 18.577 15.7366 18.577H17.6501C17.9026 18.577 18.1176 18.4959 18.2951 18.3337C18.4727 18.1716 18.5616 17.9539 18.5616 17.6807C18.5616 17.4346 18.4747 17.1872 18.3008 16.9385C18.1272 16.6898 17.9141 16.5206 17.6616 16.4308L11.1883 14.0385C11.0845 14.0052 10.9807 13.9776 10.8768 13.9558C10.773 13.9341 10.666 13.9233 10.5558 13.9233H8.71533V21.8038L15.4653 23.748ZM3.71533 21.9615C3.71533 22.3897 3.86475 22.7532 4.16358 23.052C4.46225 23.3507 4.82567 23.5 5.25383 23.5H5.67708C6.10525 23.5 6.46867 23.3507 6.76733 23.052C7.066 22.7532 7.21533 22.3897 7.21533 21.9615V15.4615C7.21533 15.0333 7.066 14.6699 6.76733 14.3713C6.46867 14.0726 6.10525 13.9233 5.67708 13.9233H5.25383C4.82567 13.9233 4.46225 14.0726 4.16358 14.3713C3.86475 14.6699 3.71533 15.0333 3.71533 15.4615V21.9615ZM17.8693 13.9788C17.6448 13.9788 17.4246 13.9377 17.2086 13.8558C16.9926 13.7738 16.7942 13.6507 16.6136 13.4865L13.9116 10.8635C13.4334 10.402 13.0312 9.88792 12.7048 9.32125C12.3785 8.75458 12.2153 8.1385 12.2153 7.473C12.2153 6.64617 12.5042 5.944 13.0818 5.3665C13.6593 4.78883 14.3615 4.5 15.1883 4.5C15.7282 4.5 16.2266 4.63017 16.6836 4.8905C17.1407 5.15067 17.536 5.48208 17.8693 5.88475C18.2027 5.48208 18.5978 5.15067 19.0548 4.8905C19.5118 4.63017 20.0103 4.5 20.5501 4.5C21.3769 4.5 22.0791 4.78883 22.6566 5.3665C23.2343 5.944 23.5231 6.64617 23.5231 7.473C23.5231 8.1385 23.3625 8.75458 23.0413 9.32125C22.7202 9.88792 22.3205 10.402 21.8423 10.8635L19.1251 13.4865C18.9443 13.6507 18.7458 13.7738 18.5298 13.8558C18.3138 13.9377 18.0937 13.9788 17.8693 13.9788Z" fill="#0F1F1C"/>
</g>
</svg>
