<svg width="23" height="24" viewBox="0 0 23 24" fill="none" xmlns="http://www.w3.org/2000/svg">
<path d="M22.0352 9.80437H21.1698V9.75785H11.5V14.2418H17.5721C16.6862 16.852 14.3058 18.7257 11.5 18.7257C7.9399 18.7257 5.05347 15.7142 5.05347 11.9998C5.05347 8.28545 7.9399 5.27395 11.5 5.27395C13.1433 5.27395 14.6384 5.92075 15.7767 6.97727L18.8157 3.80659C16.8968 1.94072 14.33 0.790039 11.5 0.790039C5.56651 0.790039 0.755798 5.80921 0.755798 11.9998C0.755798 18.1904 5.56651 23.2096 11.5 23.2096C17.4335 23.2096 22.2442 18.1904 22.2442 11.9998C22.2442 11.2482 22.17 10.5145 22.0352 9.80437Z" fill="#FFC107"/>
<path d="M1.99457 6.78222L5.52457 9.48321C6.47973 7.01594 8.79295 5.27395 11.5 5.27395C13.1433 5.27395 14.6383 5.92075 15.7767 6.97727L18.8157 3.80659C16.8968 1.94072 14.33 0.790039 11.5 0.790039C7.37311 0.790039 3.79422 3.22088 1.99457 6.78222Z" fill="#FF3D00"/>
<path d="M11.5 23.21C14.2752 23.21 16.7968 22.1019 18.7034 20.3L15.3781 17.3641C14.2993 18.2166 12.9585 18.7261 11.5 18.7261C8.70539 18.7261 6.33253 16.867 5.43862 14.2725L1.93494 17.0889C3.7131 20.7192 7.32422 23.21 11.5 23.21Z" fill="#4CAF50"/>
<path d="M22.0352 9.80433H21.1698V9.75781H11.5V14.2417H17.5721C17.1466 15.4955 16.3736 16.5767 15.3765 17.3642L15.3781 17.3631L18.7034 20.2989C18.4681 20.522 22.2442 17.6046 22.2442 11.9998C22.2442 11.2482 22.1701 10.5145 22.0352 9.80433Z" fill="#1976D2"/>
</svg>
