<svg width="28" height="28" viewBox="0 0 28 28" fill="none" xmlns="http://www.w3.org/2000/svg">
<rect width="26.8702" height="26.8702" transform="translate(0.793945 0.43512)"/>
<mask id="mask0_53_16206" style="mask-type:alpha" maskUnits="userSpaceOnUse" x="2" y="2" width="25" height="24">
<rect x="2.12988" y="2" width="24" height="24" fill="#D9D9D9"/>
</mask>
<g mask="url(#mask0_53_16206)">
<path d="M18.1336 21.5C17.8735 21.5 17.6571 21.4133 17.4846 21.24C17.3123 21.0668 17.2261 20.8522 17.2261 20.596V16.0037C17.2261 15.7436 17.3127 15.5273 17.4859 15.3548C17.659 15.1824 17.8737 15.0963 18.1299 15.0963H22.7221C22.9825 15.0963 23.1988 15.1828 23.3711 15.356C23.5436 15.5292 23.6299 15.7438 23.6299 16V20.5922C23.6299 20.8526 23.5432 21.0689 23.3699 21.2413C23.1967 21.4138 22.982 21.5 22.7259 21.5H18.1336ZM14.1299 12.9038C13.8737 12.9038 13.659 12.8172 13.4859 12.644C13.3127 12.4708 13.2261 12.2562 13.2261 12V7.40775C13.2261 7.14742 13.3127 6.93108 13.4859 6.75875C13.659 6.58625 13.8737 6.5 14.1299 6.5H22.7259C22.982 6.5 23.1967 6.58667 23.3699 6.76C23.5432 6.93317 23.6299 7.14783 23.6299 7.404V11.9962C23.6299 12.2564 23.5432 12.4727 23.3699 12.6452C23.1967 12.8176 22.982 12.9038 22.7259 12.9038H14.1299ZM5.53388 21.5C5.27772 21.5 5.06305 21.4133 4.88988 21.24C4.71655 21.0668 4.62988 20.8522 4.62988 20.596V16.0037C4.62988 15.7436 4.71655 15.5273 4.88988 15.3548C5.06305 15.1824 5.27772 15.0963 5.53388 15.0963H14.1299C14.386 15.0963 14.6007 15.1828 14.7739 15.356C14.947 15.5292 15.0336 15.7438 15.0336 16V20.5922C15.0336 20.8526 14.947 21.0689 14.7739 21.2413C14.6007 21.4138 14.386 21.5 14.1299 21.5H5.53388ZM5.53763 12.9038C5.2773 12.9038 5.06097 12.8172 4.88863 12.644C4.71613 12.4708 4.62988 12.2562 4.62988 12V7.40775C4.62988 7.14742 4.71655 6.93108 4.88988 6.75875C5.06305 6.58625 5.27772 6.5 5.53388 6.5H10.1261C10.3863 6.5 10.6026 6.58667 10.7751 6.76C10.9475 6.93317 11.0336 7.14783 11.0336 7.404V11.9962C11.0336 12.2564 10.9471 12.4727 10.7739 12.6452C10.6007 12.8176 10.386 12.9038 10.1299 12.9038H5.53763ZM14.7259 11.404H22.1299V8H14.7259V11.404ZM6.12988 20H13.5339V16.596H6.12988V20ZM18.7259 20H22.1299V16.596H18.7259V20ZM6.12988 11.404H9.53388V8H6.12988V11.404Z" fill="#BBBBBB"/>
</g>
</svg>
