<svg width="24" height="25" viewBox="0 0 24 25" fill="none" xmlns="http://www.w3.org/2000/svg">
<mask id="mask0_471_17803" style="mask-type:alpha" maskUnits="userSpaceOnUse" x="0" y="0" width="24" height="25">
<rect y="0.5" width="24" height="24" fill="black"/>
</mask>
<g mask="url(#mask0_471_17803)">
<path d="M12 22.5C11.45 22.5 10.9792 22.3042 10.5875 21.9125C10.1958 21.5208 10 21.05 10 20.5H14C14 21.05 13.8042 21.5208 13.4125 21.9125C13.0208 22.3042 12.55 22.5 12 22.5ZM4 19.5V17.5H6V10.5C6 9.11667 6.41667 7.8875 7.25 6.8125C8.08333 5.7375 9.16667 5.03333 10.5 4.7V4C10.5 3.58333 10.6458 3.22917 10.9375 2.9375C11.2292 2.64583 11.5833 2.5 12 2.5C12.4167 2.5 12.7708 2.64583 13.0625 2.9375C13.3542 3.22917 13.5 3.58333 13.5 4V4.325C13.3167 4.69167 13.1833 5.06667 13.1 5.45C13.0167 5.83333 12.9833 6.225 13 6.625C12.8333 6.59167 12.6708 6.5625 12.5125 6.5375C12.3542 6.5125 12.1833 6.5 12 6.5C10.9 6.5 9.95833 6.89167 9.175 7.675C8.39167 8.45833 8 9.4 8 10.5V17.5H16V11.075C16.3 11.2083 16.6208 11.3125 16.9625 11.3875C17.3042 11.4625 17.65 11.5 18 11.5V17.5H20V19.5H4ZM18 9.5C17.1667 9.5 16.4583 9.20833 15.875 8.625C15.2917 8.04167 15 7.33333 15 6.5C15 5.66667 15.2917 4.95833 15.875 4.375C16.4583 3.79167 17.1667 3.5 18 3.5C18.8333 3.5 19.5417 3.79167 20.125 4.375C20.7083 4.95833 21 5.66667 21 6.5C21 7.33333 20.7083 8.04167 20.125 8.625C19.5417 9.20833 18.8333 9.5 18 9.5Z" fill="#0F1F1C"/>
<circle cx="18" cy="6.5" r="3" fill="#66A636"/>
</g>
</svg>
