<svg width="40" height="28" viewBox="0 0 40 28" fill="none" xmlns="http://www.w3.org/2000/svg">
<rect width="40" height="28" rx="14" fill="#142C28"/>
<mask id="mask0_42_8180" style="mask-type:alpha" maskUnits="userSpaceOnUse" x="10" y="4" width="20" height="20">
<rect x="10" y="4" width="20" height="20" fill="#D9D9D9"/>
</mask>
<g mask="url(#mask0_42_8180)">
<path d="M23 8.5V14L24.7708 15.7708C24.8403 15.8403 24.8958 15.9201 24.9375 16.0104C24.9792 16.1007 25 16.2014 25 16.3125V16.746C25 16.9597 24.9281 17.1388 24.7844 17.2833C24.6406 17.4278 24.4625 17.5 24.25 17.5H20.75V22.125C20.75 22.3375 20.6785 22.5156 20.5356 22.6594C20.3927 22.8031 20.2156 22.875 20.0044 22.875C19.7931 22.875 19.6146 22.8031 19.4688 22.6594C19.3229 22.5156 19.25 22.3375 19.25 22.125V17.5H15.75C15.5375 17.5 15.3594 17.4278 15.2156 17.2833C15.0719 17.1388 15 16.9597 15 16.746V16.3125C15 16.2014 15.0208 16.1007 15.0625 16.0104C15.1042 15.9201 15.1597 15.8403 15.2292 15.7708L17 14V8.5H16.75C16.5375 8.5 16.3594 8.42854 16.2156 8.28563C16.0719 8.14271 16 7.96563 16 7.75438C16 7.54313 16.0719 7.36458 16.2156 7.21875C16.3594 7.07292 16.5375 7 16.75 7H23.25C23.4625 7 23.6406 7.07146 23.7844 7.21437C23.9281 7.35729 24 7.53437 24 7.74562C24 7.95687 23.9281 8.13542 23.7844 8.28125C23.6406 8.42708 23.4625 8.5 23.25 8.5H23ZM17.125 16H22.875L21.5 14.625V8.5H18.5V14.625L17.125 16Z" fill="#5B6966"/>
</g>
</svg>
