<svg width="28" height="28" viewBox="0 0 28 28" fill="none" xmlns="http://www.w3.org/2000/svg">
<mask id="mask0_471_18276" style="mask-type:alpha" maskUnits="userSpaceOnUse" x="2" y="2" width="25" height="24">
<rect x="2.17542" y="2" width="24" height="24" fill="#D9D9D9"/>
</mask>
<g mask="url(#mask0_471_18276)">
<path d="M3.97363 19.0844C3.97363 18.5691 4.10663 18.1091 4.37263 17.7046C4.63863 17.3001 4.99388 16.9855 5.43838 16.7606C6.38872 16.2958 7.3443 15.9374 8.30513 15.6854C9.26613 15.4336 10.3222 15.3076 11.4734 15.3076C12.6247 15.3076 13.6808 15.4336 14.6416 15.6854C15.6026 15.9374 16.5583 16.2958 17.5086 16.7606C17.9531 16.9855 18.3084 17.3001 18.5744 17.7046C18.8404 18.1091 18.9734 18.5691 18.9734 19.0844V19.7884C18.9734 20.1909 18.8256 20.5447 18.5301 20.8499C18.2346 21.1551 17.876 21.3076 17.4541 21.3076H5.49263C5.07097 21.3076 4.71238 21.1599 4.41688 20.8644C4.12138 20.5687 3.97363 20.2101 3.97363 19.7884V19.0844ZM22.8581 21.3076H20.5869C20.7126 21.0781 20.8084 20.8339 20.8744 20.5749C20.9404 20.3159 20.9734 20.0537 20.9734 19.7884V18.9614C20.9734 18.3051 20.8127 17.6795 20.4914 17.0846C20.1699 16.49 19.7139 15.9797 19.1234 15.5539C19.7939 15.6539 20.4305 15.8086 21.0331 16.0181C21.6356 16.2278 22.2106 16.4756 22.7581 16.7614C23.2748 17.0371 23.6738 17.362 23.9551 17.7361C24.2365 18.1101 24.3771 18.5186 24.3771 18.9614V19.7884C24.3771 20.2101 24.2294 20.5687 23.9339 20.8644C23.6384 21.1599 23.2798 21.3076 22.8581 21.3076ZM11.4734 13.6921C10.5109 13.6921 9.68697 13.3495 9.00163 12.6641C8.3163 11.9786 7.97363 11.1546 7.97363 10.1921C7.97363 9.22964 8.3163 8.40572 9.00163 7.72039C9.68697 7.03489 10.5109 6.69214 11.4734 6.69214C12.4359 6.69214 13.2599 7.03489 13.9454 7.72039C14.6307 8.40572 14.9734 9.22964 14.9734 10.1921C14.9734 11.1546 14.6307 11.9786 13.9454 12.6641C13.2599 13.3495 12.4359 13.6921 11.4734 13.6921ZM20.1079 10.1921C20.1079 11.1546 19.7652 11.9786 19.0799 12.6641C18.3946 13.3495 17.5706 13.6921 16.6081 13.6921C16.4953 13.6921 16.3517 13.6793 16.1774 13.6536C16.0029 13.628 15.8593 13.5998 15.7466 13.5691C16.141 13.095 16.4441 12.569 16.6559 11.9911C16.8676 11.4133 16.9734 10.8133 16.9734 10.1911C16.9734 9.56881 16.8654 8.97105 16.6494 8.39789C16.4334 7.82489 16.1325 7.29739 15.7466 6.81539C15.8901 6.76406 16.0337 6.73072 16.1774 6.71539C16.3209 6.69989 16.4645 6.69214 16.6081 6.69214C17.5706 6.69214 18.3946 7.03489 19.0799 7.72039C19.7652 8.40572 20.1079 9.22964 20.1079 10.1921ZM5.47338 19.8076H17.4734V19.0844C17.4734 18.8756 17.4211 18.6897 17.3166 18.5269C17.2123 18.3641 17.0466 18.2217 16.8196 18.0999C15.9966 17.6756 15.1492 17.3541 14.2774 17.1354C13.4056 16.9169 12.4709 16.8076 11.4734 16.8076C10.4761 16.8076 9.54147 16.9169 8.66963 17.1354C7.7978 17.3541 6.95038 17.6756 6.12738 18.0999C5.90038 18.2217 5.73463 18.3641 5.63013 18.5269C5.52563 18.6897 5.47338 18.8756 5.47338 19.0844V19.8076ZM11.4734 12.1921C12.0234 12.1921 12.4942 11.9963 12.8859 11.6046C13.2776 11.213 13.4734 10.7421 13.4734 10.1921C13.4734 9.64214 13.2776 9.17131 12.8859 8.77964C12.4942 8.38797 12.0234 8.19214 11.4734 8.19214C10.9234 8.19214 10.4526 8.38797 10.0609 8.77964C9.66922 9.17131 9.47338 9.64214 9.47338 10.1921C9.47338 10.7421 9.66922 11.213 10.0609 11.6046C10.4526 11.9963 10.9234 12.1921 11.4734 12.1921Z" fill="#BBBBBB"/>
</g>
</svg>
