<svg width="28" height="28" viewBox="0 0 28 28" fill="none" xmlns="http://www.w3.org/2000/svg">
<rect width="26.8702" height="26.8702" transform="translate(0.793945 0.435059)"/>
<mask id="mask0_471_18266" style="mask-type:alpha" maskUnits="userSpaceOnUse" x="2" y="2" width="25" height="24">
<rect x="2.12988" y="2" width="24" height="24" fill="#D9D9D9"/>
</mask>
<g mask="url(#mask0_471_18266)">
<path d="M18.1299 22C17.8465 22 17.609 21.9042 17.4174 21.7125C17.2257 21.5208 17.1299 21.2833 17.1299 21V16C17.1299 15.7167 17.2257 15.4792 17.4174 15.2875C17.609 15.0958 17.8465 15 18.1299 15H23.1299C23.4132 15 23.6507 15.0958 23.8424 15.2875C24.034 15.4792 24.1299 15.7167 24.1299 16V21C24.1299 21.2833 24.034 21.5208 23.8424 21.7125C23.6507 21.9042 23.4132 22 23.1299 22H18.1299ZM14.1299 13C13.8465 13 13.609 12.9042 13.4174 12.7125C13.2257 12.5208 13.1299 12.2833 13.1299 12V7C13.1299 6.71667 13.2257 6.47917 13.4174 6.2875C13.609 6.09583 13.8465 6 14.1299 6H23.1299C23.4132 6 23.6507 6.09583 23.8424 6.2875C24.034 6.47917 24.1299 6.71667 24.1299 7V12C24.1299 12.2833 24.034 12.5208 23.8424 12.7125C23.6507 12.9042 23.4132 13 23.1299 13H14.1299ZM5.12988 22C4.84655 22 4.60905 21.9042 4.41738 21.7125C4.22572 21.5208 4.12988 21.2833 4.12988 21V16C4.12988 15.7167 4.22572 15.4792 4.41738 15.2875C4.60905 15.0958 4.84655 15 5.12988 15H14.1299C14.4132 15 14.6507 15.0958 14.8424 15.2875C15.034 15.4792 15.1299 15.7167 15.1299 16V21C15.1299 21.2833 15.034 21.5208 14.8424 21.7125C14.6507 21.9042 14.4132 22 14.1299 22H5.12988ZM5.12988 13C4.84655 13 4.60905 12.9042 4.41738 12.7125C4.22572 12.5208 4.12988 12.2833 4.12988 12V7C4.12988 6.71667 4.22572 6.47917 4.41738 6.2875C4.60905 6.09583 4.84655 6 5.12988 6H10.1299C10.4132 6 10.6507 6.09583 10.8424 6.2875C11.034 6.47917 11.1299 6.71667 11.1299 7V12C11.1299 12.2833 11.034 12.5208 10.8424 12.7125C10.6507 12.9042 10.4132 13 10.1299 13H5.12988Z" fill="#0F1F1C"/>
</g>
</svg>
