<svg width="50" height="20" viewBox="0 0 50 20" fill="none" xmlns="http://www.w3.org/2000/svg">
<path d="M33.958 4.21875C36.2944 4.21875 38.4974 6.32841 38.5107 10.2002C38.5107 14.4324 36.3351 16.3554 33.9453 16.3555C32.7704 16.3555 32.0627 15.8608 31.582 15.5137L31.5684 19.292L28.2305 20V4.43262H31.168L31.3418 5.26074C31.809 4.83356 32.6499 4.21889 33.958 4.21875ZM5.48047 4.21875C6.58861 4.21875 7.68385 4.39242 8.79199 4.83301V7.9707C7.77731 7.42331 6.49515 7.11621 5.48047 7.11621C4.77295 7.11621 4.34581 7.31637 4.3457 7.83691C4.3457 9.33224 9.43196 8.62488 9.44531 12.6035C9.44529 14.9933 7.53664 16.3681 4.75977 16.3682C3.61157 16.3682 2.35591 16.1415 1.11426 15.6074V12.4297C2.23575 13.0438 3.65162 13.498 4.75977 13.498C5.50728 13.498 6.04101 13.2977 6.04102 12.6836C6.04102 11.0948 0.967773 11.682 0.967773 7.99707C0.967906 5.63407 2.77029 4.21875 5.48047 4.21875ZM13.3574 4.44629H15.8945V7.29004H13.3574V12.0293C13.3574 14.0053 15.4673 13.3913 15.8945 13.2178V15.9277C15.4539 16.1681 14.6524 16.3682 13.5576 16.3682C11.5819 16.368 10.0997 14.9132 10.0996 12.9375L10.1133 2.24316L13.3711 1.54883L13.3574 4.44629ZM44.2119 4.21875C47.3761 4.21875 49.0322 6.91609 49.0322 10.334C49.0322 10.6545 49.0049 11.3489 49.0049 11.5225H42.4766C42.6236 13.0975 43.7715 13.5517 45.0664 13.5518C46.3882 13.5518 47.43 13.2713 48.3379 12.8174V15.4873C47.4301 15.9946 46.2283 16.3554 44.6396 16.3555C41.382 16.3555 39.1123 14.3253 39.1123 10.3066C39.1125 6.91574 41.0346 4.21888 44.2119 4.21875ZM20.0469 5.43359C20.8345 3.99233 22.3957 4.28607 22.8232 4.44629V7.5166C22.409 7.36976 21.0746 7.18332 20.2871 8.21094V16.1279H16.9492V4.44629H19.833L20.0469 5.43359ZM26.9893 16.1279H23.6377V4.44629H26.9893V16.1279ZM33.1572 7.18262C32.3963 7.18266 31.9155 7.44976 31.5684 7.83691L31.582 12.79C31.9024 13.1371 32.3696 13.4179 33.1572 13.418C34.3855 13.418 35.2138 12.0829 35.2139 10.2939C35.2139 8.54495 34.3722 7.18262 33.1572 7.18262ZM44.1992 6.92969C43.3581 6.92969 42.4365 7.55675 42.4365 9.06543H45.8809C45.8809 7.55701 45.0135 6.92991 44.1992 6.92969ZM26.9893 2.70996L23.6377 3.43164V0.708008L26.9893 0V2.70996Z" fill="#635BFF"/>
</svg>
