<svg width="28" height="28" viewBox="0 0 28 28" fill="none" xmlns="http://www.w3.org/2000/svg">
<mask id="mask0_471_18283" style="mask-type:alpha" maskUnits="userSpaceOnUse" x="2" y="2" width="25" height="24">
<rect x="2.02271" y="2" width="24" height="24" fill="#D9D9D9"/>
</mask>
<g mask="url(#mask0_471_18283)">
<path d="M15.8957 22.602C15.9279 22.6148 15.9567 22.6213 15.9822 22.6213C16.0079 22.6213 16.0368 22.6148 16.069 22.602L21.9515 20.7808C21.9003 20.5539 21.7946 20.3799 21.6342 20.2587C21.4739 20.1376 21.2925 20.077 21.09 20.077H16.1927C15.7564 20.077 15.3856 20.0603 15.0805 20.027C14.7753 19.9937 14.4618 19.9206 14.14 19.8077L12.5707 19.2943C12.3691 19.2301 12.2241 19.1019 12.136 18.9098C12.0476 18.7174 12.0356 18.5216 12.0997 18.3223C12.1637 18.1228 12.2877 17.9766 12.4717 17.8837C12.6557 17.7907 12.849 17.7763 13.0515 17.8405L14.3515 18.2962C14.6541 18.3924 14.9926 18.4607 15.367 18.501C15.7413 18.5413 16.2265 18.5667 16.8225 18.577H17.09C17.09 18.3295 17.0342 18.116 16.9227 17.9365C16.8112 17.757 16.6644 17.6358 16.4822 17.573L10.6805 15.4423C10.6611 15.4359 10.6435 15.4312 10.6275 15.428C10.6115 15.4247 10.5939 15.423 10.5747 15.423H8.72473V20.577L15.8957 22.602ZM15.5055 24.0712L8.72473 22.127C8.61056 22.541 8.37848 22.8733 8.02848 23.124C7.67848 23.3747 7.30798 23.5 6.91698 23.5H5.53248C5.03531 23.5 4.60973 23.323 4.25573 22.969C3.90173 22.615 3.72473 22.1894 3.72473 21.6923V15.7308C3.72473 15.2338 3.90173 14.8083 4.25573 14.4543C4.60973 14.1003 5.03531 13.9233 5.53248 13.9233H10.5635C10.6683 13.9233 10.7746 13.9348 10.8822 13.9578C10.9901 13.9809 11.0901 14.0078 11.1822 14.0385L17.0092 16.1848C17.4631 16.3526 17.84 16.6497 18.14 17.076C18.44 17.5023 18.59 18.0027 18.59 18.577H21.09C21.808 18.577 22.3929 18.8088 22.8447 19.2723C23.2967 19.7356 23.5227 20.3372 23.5227 21.077C23.5227 21.3603 23.4477 21.5885 23.2977 21.7615C23.1477 21.9347 22.9208 22.0718 22.617 22.173L16.5497 24.0557C16.3856 24.1096 16.2131 24.1381 16.0322 24.1413C15.8516 24.1446 15.676 24.1212 15.5055 24.0712ZM5.22473 21.6923C5.22473 21.7821 5.25356 21.8558 5.31123 21.9135C5.3689 21.9712 5.44265 22 5.53248 22H6.91698C7.00665 22 7.0804 21.976 7.13823 21.928C7.1959 21.8798 7.22473 21.8013 7.22473 21.6923V15.423H5.53248C5.44265 15.423 5.3689 15.4519 5.31123 15.5098C5.25356 15.5674 5.22473 15.6411 5.22473 15.7308V21.6923ZM17.8687 13.9788C17.6444 13.9788 17.4239 13.9377 17.2072 13.8558C16.9906 13.7738 16.7926 13.6507 16.6132 13.4865L13.9112 10.8635C13.4331 10.402 13.0308 9.88825 12.7045 9.32225C12.3781 8.75625 12.215 8.13983 12.215 7.473C12.215 6.64717 12.5041 5.94525 13.0822 5.36725C13.6602 4.78908 14.3621 4.5 15.188 4.5C15.7278 4.5 16.2262 4.63017 16.6832 4.8905C17.1404 5.15067 17.5356 5.48208 17.869 5.88475C18.2023 5.48208 18.5975 5.15067 19.0545 4.8905C19.5115 4.63017 20.0099 4.5 20.5497 4.5C21.3756 4.5 22.0775 4.78908 22.6555 5.36725C23.2336 5.94525 23.5227 6.64717 23.5227 7.473C23.5227 8.13983 23.3621 8.75625 23.041 9.32225C22.7198 9.88825 22.3201 10.402 21.842 10.8635L19.1247 13.4865C18.9452 13.6507 18.7471 13.7738 18.5302 13.8558C18.3136 13.9377 18.0931 13.9788 17.8687 13.9788ZM18.0805 12.402L20.7285 9.83275C21.0643 9.50325 21.364 9.14492 21.6275 8.75775C21.891 8.37058 22.0227 7.94233 22.0227 7.473C22.0227 7.0615 21.8801 6.71317 21.5947 6.428C21.3096 6.14267 20.9612 6 20.5497 6C20.2331 6 19.9433 6.08267 19.6805 6.248C19.4176 6.4135 19.1856 6.62317 18.9842 6.877L18.538 7.4155C18.3658 7.62317 18.1433 7.727 17.8705 7.727C17.5976 7.727 17.3741 7.62317 17.1997 7.4155L16.7535 6.877C16.5521 6.62317 16.3201 6.4135 16.0572 6.248C15.7946 6.08267 15.5048 6 15.188 6C14.7765 6 14.4281 6.14267 14.143 6.428C13.8576 6.71317 13.715 7.0615 13.715 7.473C13.715 7.94233 13.8467 8.37058 14.1102 8.75775C14.3737 9.14492 14.6734 9.50325 15.0092 9.83275L17.6572 12.402C17.7151 12.4597 17.7856 12.4885 17.869 12.4885C17.9523 12.4885 18.0228 12.4597 18.0805 12.402Z" fill="#BBBBBB"/>
</g>
</svg>
