<svg width="24" height="24" viewBox="0 0 24 24" fill="none" xmlns="http://www.w3.org/2000/svg">
<mask id="mask0_124_887" style="mask-type:alpha" maskUnits="userSpaceOnUse" x="0" y="0" width="24" height="24">
<rect width="24" height="24" fill="#D9D9D9"/>
</mask>
<g mask="url(#mask0_124_887)">
<path d="M13.8729 20.602C13.9051 20.6148 13.9339 20.6213 13.9594 20.6213C13.9851 20.6213 14.014 20.6148 14.0462 20.602L19.9287 18.7808C19.8775 18.5539 19.7717 18.3799 19.6114 18.2587C19.4511 18.1376 19.2697 18.077 19.0672 18.077H14.1699C13.7336 18.077 13.3628 18.0603 13.0577 18.027C12.7525 17.9937 12.439 17.9206 12.1172 17.8077L10.5479 17.2943C10.3462 17.2301 10.2013 17.1019 10.1132 16.9098C10.0248 16.7174 10.0127 16.5216 10.0769 16.3223C10.1409 16.1228 10.2649 15.9766 10.4489 15.8837C10.6329 15.7907 10.8262 15.7763 11.0287 15.8405L12.3287 16.2962C12.6313 16.3924 12.9698 16.4607 13.3442 16.501C13.7185 16.5413 14.2037 16.5667 14.7997 16.577H15.0672C15.0672 16.3295 15.0114 16.116 14.8999 15.9365C14.7884 15.757 14.6416 15.6358 14.4594 15.573L8.65765 13.4423C8.63832 13.4359 8.62065 13.4312 8.60465 13.428C8.58865 13.4247 8.57107 13.423 8.5519 13.423H6.7019V18.577L13.8729 20.602ZM13.4827 22.0712L6.7019 20.127C6.58774 20.541 6.35565 20.8733 6.00565 21.124C5.65565 21.3747 5.28515 21.5 4.89415 21.5H3.50965C3.01249 21.5 2.5869 21.323 2.2329 20.969C1.8789 20.615 1.7019 20.1894 1.7019 19.6923V13.7308C1.7019 13.2338 1.8789 12.8083 2.2329 12.4543C2.5869 12.1003 3.01249 11.9233 3.50965 11.9233H8.54065C8.64549 11.9233 8.75174 11.9348 8.8594 11.9578C8.96724 11.9809 9.06724 12.0078 9.1594 12.0385L14.9864 14.1848C15.4402 14.3526 15.8172 14.6497 16.1172 15.076C16.4172 15.5023 16.5672 16.0027 16.5672 16.577H19.0672C19.7852 16.577 20.3701 16.8088 20.8219 17.2723C21.2739 17.7356 21.4999 18.3372 21.4999 19.077C21.4999 19.3603 21.4249 19.5885 21.2749 19.7615C21.1249 19.9347 20.898 20.0718 20.5942 20.173L14.5269 22.0557C14.3627 22.1096 14.1902 22.1381 14.0094 22.1413C13.8287 22.1446 13.6532 22.1212 13.4827 22.0712ZM3.2019 19.6923C3.2019 19.7821 3.23074 19.8558 3.2884 19.9135C3.34607 19.9712 3.41982 20 3.50965 20H4.89415C4.98382 20 5.05757 19.976 5.1154 19.928C5.17307 19.8798 5.2019 19.8013 5.2019 19.6923V13.423H3.50965C3.41982 13.423 3.34607 13.4519 3.2884 13.5098C3.23074 13.5674 3.2019 13.6411 3.2019 13.7308V19.6923ZM15.8459 11.9788C15.6216 11.9788 15.4011 11.9377 15.1844 11.8558C14.9677 11.7738 14.7697 11.6507 14.5904 11.4865L11.8884 8.8635C11.4102 8.402 11.008 7.88825 10.6817 7.32225C10.3553 6.75625 10.1922 6.13983 10.1922 5.473C10.1922 4.64717 10.4812 3.94525 11.0594 3.36725C11.6374 2.78908 12.3393 2.5 13.1652 2.5C13.705 2.5 14.2034 2.63017 14.6604 2.8905C15.1176 3.15067 15.5128 3.48208 15.8462 3.88475C16.1795 3.48208 16.5747 3.15067 17.0317 2.8905C17.4887 2.63017 17.9871 2.5 18.5269 2.5C19.3527 2.5 20.0547 2.78908 20.6327 3.36725C21.2108 3.94525 21.4999 4.64717 21.4999 5.473C21.4999 6.13983 21.3393 6.75625 21.0182 7.32225C20.697 7.88825 20.2973 8.402 19.8192 8.8635L17.1019 11.4865C16.9224 11.6507 16.7242 11.7738 16.5074 11.8558C16.2907 11.9377 16.0702 11.9788 15.8459 11.9788ZM16.0577 10.402L18.7057 7.83275C19.0415 7.50325 19.3412 7.14492 19.6047 6.75775C19.8682 6.37058 19.9999 5.94233 19.9999 5.473C19.9999 5.0615 19.8572 4.71317 19.5719 4.428C19.2867 4.14267 18.9384 4 18.5269 4C18.2102 4 17.9205 4.08267 17.6577 4.248C17.3948 4.4135 17.1627 4.62317 16.9614 4.877L16.5152 5.4155C16.343 5.62317 16.1205 5.727 15.8477 5.727C15.5748 5.727 15.3512 5.62317 15.1769 5.4155L14.7307 4.877C14.5293 4.62317 14.2972 4.4135 14.0344 4.248C13.7717 4.08267 13.482 4 13.1652 4C12.7537 4 12.4053 4.14267 12.1202 4.428C11.8348 4.71317 11.6922 5.0615 11.6922 5.473C11.6922 5.94233 11.8239 6.37058 12.0874 6.75775C12.3509 7.14492 12.6506 7.50325 12.9864 7.83275L15.6344 10.402C15.6922 10.4597 15.7628 10.4885 15.8462 10.4885C15.9295 10.4885 16 10.4597 16.0577 10.402Z" fill="#66A636"/>
</g>
</svg>
