<svg width="44" height="44" viewBox="0 0 44 44" fill="none" xmlns="http://www.w3.org/2000/svg">
<path d="M22 25.275C21.8667 25.275 21.7417 25.2541 21.625 25.2125C21.5084 25.1708 21.4 25.1 21.3 25L16.7 20.4C16.5167 20.2166 16.425 19.9833 16.425 19.7C16.425 19.4166 16.5167 19.1833 16.7 19C16.8834 18.8166 17.1167 18.725 17.4 18.725C17.6834 18.725 17.9167 18.8166 18.1 19L22 22.9L25.9 19C26.0834 18.8166 26.3167 18.725 26.6 18.725C26.8834 18.725 27.1167 18.8166 27.3 19C27.4834 19.1833 27.575 19.4166 27.575 19.7C27.575 19.9833 27.4834 20.2166 27.3 20.4L22.7 25C22.6 25.1 22.4917 25.1708 22.375 25.2125C22.2584 25.2541 22.1334 25.275 22 25.275Z" fill="#0F1F1C"/>
</svg>
